<svg xmlns="http://www.w3.org/2000/svg" viewBox="0 0 100 100" id="Moutain-And-Sun--Streamline-Ux">
  <desc>Moutain And Sun Streamline Illustration</desc>
  <!-- Static Mountain Group -->
  <g class="mountains">
    <path fill="#d9edff" d="M5.9996 54.186C5.9834 88.4117 43.0237 109.8204 72.6722 92.7216C86.4452 84.7785 94.9283 70.0853 94.9207 54.186C94.937 19.9602 57.8966 -1.4485 28.2481 15.6503C14.4752 23.5935 5.9921 38.2867 5.9996 54.186" stroke-width="1"></path>
    <path d="M65.7513 43.4376C56.499 52.4665 49.0363 62.3056 44.1768 73.3218L57.9751 96.6303L67.2752 78.0291C78.2447 58.6209 72.985 54.2882 65.7513 43.4376Z" stroke="#020064" stroke-linecap="round" stroke-linejoin="round" fill="#ffffff" stroke-width="1"></path>
    <path d="M94.0715 62.8747C85.3684 55.3824 75.8719 48.8646 65.7513 43.4376C72.985 54.2882 78.2447 58.6209 67.2763 78.0291L57.9751 96.6303L58.7087 97.8696C76.5261 94.5006 90.5164 80.6559 94.0715 62.8747Z" fill="#b0d9ff" stroke-width="1"></path>
    <path d="M14.0981 79.7441C21.5727 90.3911 33.3392 97.226 46.2909 98.4442C43.6644 86.5922 31.5722 73.7897 35.6115 59.1467C29.2458 63.2159 20.9561 71.8857 14.0981 79.7441Z" fill="#ffffff" stroke-width="1"></path>
    <path d="M94.0715 62.8747C85.3684 55.3824 75.8719 48.8646 65.7513 43.4376C72.985 54.2882 78.2447 58.6209 67.2763 78.0291L57.9751 96.6303" fill="none" stroke="#020064" stroke-linecap="round" stroke-linejoin="round" stroke-width="1"></path>
    <path d="M61.3819 72.7205L50.9014 72.0636C46.1404 67.3757 41.0289 63.0575 35.6115 59.1467C31.5722 73.7897 43.6644 86.5922 46.2909 98.4442C47.679 98.5759 49.0725 98.643 50.4668 98.6454C59.3107 98.6592 67.9559 96.0227 75.287 91.076Z" fill="#b0d9ff" stroke-width="1"></path>
    <path d="M46.2909 98.4442C43.6644 86.5922 31.5722 73.7897 35.6115 59.1467C29.2458 63.2159 20.9561 71.8857 14.0981 79.7441" fill="none" stroke="#020064" stroke-linecap="round" stroke-linejoin="round" stroke-width="1"></path>
    <path d="M75.287 91.076L61.3819 72.7205L50.9014 72.0636C46.1404 67.3757 41.0289 63.0575 35.6115 59.1467C31.5722 73.7897 43.6644 86.5922 46.2909 98.4442" fill="none" stroke="#020064" stroke-linecap="round" stroke-linejoin="round" stroke-width="1"></path>
    <g stroke="#020064" stroke-linecap="round" stroke-linejoin="round">
      <path fill="none" d="M30.0305 4.5646V1M14.9084 10.828L12.3875 8.3082M8.6439 25.9513H5.0793M14.9084 41.0734L12.3875 43.5943M46.342 10.828L48.8618 8.3082M52.6054 25.9513H56.17M46.342 41.0734L48.8618 43.5943M30.0305 47.3379V50.9026" stroke-width="1"></path>
      <path fill="#ffffff" d="M13.3967 25.9513C13.3967 38.756 27.2582 46.7589 38.3474 40.3566C43.494 37.3852 46.6644 31.894 46.6644 25.9513C46.6644 13.1466 32.8028 5.1436 21.7136 11.546C16.5671 14.5173 13.3967 20.0086 13.3967 25.9513" stroke-width="1"></path>
    </g>
  </g>
</svg>